# xmcd CD database file generated by Grip 3.2.0
# 
# Track frame offsets:
#       150
#       11971
#       27745
#       43562
#       54303
#       74928
#       101925
#       114563
#       134283
#       144672
#       156486
#       172520
#       184881
#       200773
#       214438
#       231408
#       247425
#       254736
#       272815
# 
# Disc length: 4052 seconds
# 
# Revision: 1
# Processed by: cddbd v1.5.1PL2 Copyright (c) Steve Scherf et al.
# Submitted via: Grip 3.2.0
# 
DISCID=410fd213
DTITLE=Various Artist - 1. velký trampský zpěvník L - Mes
DYEAR=2005
DGENRE=Alternative
TTITLE0=Lákání
TTITLE1=Laredo (Kovbojův nářek)
TTITLE2=Letí šíp savanou
TTITLE3=Lístek
TTITLE4=Lká ukulele tmou (Píseň domorodce)
TTITLE5=Loď ahoj
TTITLE6=Loď John B.
TTITLE7=Lovci bizonů
TTITLE8=Luční kvítí
TTITLE9=Máky (Horký den)
TTITLE10=Malá říčka
TTITLE11=Malajka
TTITLE12=Mám rád krásné děvče za řekou
TTITLE13=Maminko, mámo
TTITLE14=Mariána
TTITLE15=Marta
TTITLE16=Mávej
TTITLE17=Mc Laren
TTITLE18=Měsíční údolí
EXTD=Vložila Agina
EXTT0=
EXTT1=
EXTT2=
EXTT3=
EXTT4=
EXTT5=
EXTT6=
EXTT7=
EXTT8=
EXTT9=
EXTT10=
EXTT11=
EXTT12=
EXTT13=
EXTT14=
EXTT15=
EXTT16=
EXTT17=
EXTT18=
PLAYORDER=
